<svg width="15" height="15" viewBox="0 0 15 15" fill="none" xmlns="http://www.w3.org/2000/svg">
<path d="M14 1L14.4596 1.19696C14.5401 1.00904 14.4981 0.791016 14.3536 0.646447C14.209 0.501877 13.991 0.45989 13.803 0.540427L14 1ZM1 6.57143L0.80304 6.11186C0.630457 6.18582 0.513861 6.35024 0.501148 6.53757C0.488434 6.72491 0.581745 6.90357 0.742752 7.00017L1 6.57143ZM8.42857 14L7.99982 14.2572C8.09643 14.4183 8.27509 14.5116 8.46243 14.4989C8.64976 14.4861 8.81418 14.3695 8.88814 14.197L8.42857 14ZM13.803 0.540427L0.80304 6.11186L1.19696 7.031L14.197 1.45957L13.803 0.540427ZM0.742752 7.00017L5.38561 9.78589L5.9001 8.9284L1.25725 6.14268L0.742752 7.00017ZM5.21411 9.61439L7.99982 14.2572L8.85732 13.7428L6.0716 9.09989L5.21411 9.61439ZM8.88814 14.197L14.4596 1.19696L13.5404 0.80304L7.969 13.803L8.88814 14.197ZM13.6464 0.646447L5.2893 9.00359L5.99641 9.7107L14.3536 1.35355L13.6464 0.646447Z" fill="black"/>
</svg>
