<svg width="14" height="16" viewBox="0 0 14 16" fill="none" xmlns="http://www.w3.org/2000/svg">
<path d="M2 7V6.5H1.5V7H2ZM6 7V6.5H5.5V7H6ZM6 11H5.5V11.5H6V11ZM13 4H13.5V3.79289L13.3536 3.64645L13 4ZM10 1L10.3536 0.646447L10.2071 0.5H10V1ZM2 7.5H3V6.5H2V7.5ZM2.5 11.5V9H1.5V11.5H2.5ZM2.5 9V7H1.5V9H2.5ZM3 8.5H2V9.5H3V8.5ZM3.5 8C3.5 8.27614 3.27614 8.5 3 8.5V9.5C3.82843 9.5 4.5 8.82843 4.5 8H3.5ZM3 7.5C3.27614 7.5 3.5 7.72386 3.5 8H4.5C4.5 7.17157 3.82843 6.5 3 6.5V7.5ZM5.5 7V11H6.5V7H5.5ZM6 11.5H7V10.5H6V11.5ZM8.5 10V8H7.5V10H8.5ZM7 6.5H6V7.5H7V6.5ZM8.5 8C8.5 7.17157 7.82843 6.5 7 6.5V7.5C7.27614 7.5 7.5 7.72386 7.5 8H8.5ZM7 11.5C7.82843 11.5 8.5 10.8284 8.5 10H7.5C7.5 10.2761 7.27614 10.5 7 10.5V11.5ZM9.5 6.5V11.5H10.5V6.5H9.5ZM10 7.5H12.5V6.5H10V7.5ZM10 9.5H11.5V8.5H10V9.5ZM1.5 5.5V2H0.5V5.5H1.5ZM12.5 4V5.5H13.5V4H12.5ZM2 1.5H10V0.5H2V1.5ZM9.64645 1.35355L12.6464 4.35355L13.3536 3.64645L10.3536 0.646447L9.64645 1.35355ZM1.5 2C1.5 1.72386 1.72386 1.5 2 1.5V0.5C1.17157 0.5 0.5 1.17157 0.5 2H1.5ZM0.5 12.5V14H1.5V12.5H0.5ZM2 15.5H12V14.5H2V15.5ZM13.5 14V12.5H12.5V14H13.5ZM12 15.5C12.8284 15.5 13.5 14.8284 13.5 14H12.5C12.5 14.2761 12.2761 14.5 12 14.5V15.5ZM0.5 14C0.5 14.8284 1.17157 15.5 2 15.5V14.5C1.72386 14.5 1.5 14.2761 1.5 14H0.5Z" fill="black"/>
</svg>
